<svg xmlns="http://www.w3.org/2000/svg" viewBox="0 0 24 24" id="settings">
  <g>
    <path d="M22.217,13.28a.523.523,0,0,1-.248-.509c.02-.253.031-.511.031-.771s-.011-.518-.031-.773a.521.521,0,0,1,.248-.507,2.515,2.515,0,0,0,.92-3.431L21.647,4.71A2.517,2.517,0,0,0,18.211,3.8a.494.494,0,0,1-.535-.021,10.008,10.008,0,0,0-1.391-.8A.5.5,0,0,1,16,2.512,2.515,2.515,0,0,0,13.488,0H10.512A2.517,2.517,0,0,0,8,2.521a.5.5,0,0,1-.284.452,9.961,9.961,0,0,0-1.392.8.5.5,0,0,1-.541.018,2.513,2.513,0,0,0-3.431.919L.863,7.289a2.515,2.515,0,0,0,.92,3.431.523.523,0,0,1,.248.509C2.011,11.482,2,11.74,2,12s.011.518.031.773a.521.521,0,0,1-.248.507,2.515,2.515,0,0,0-.92,3.431l1.49,2.579a2.516,2.516,0,0,0,3.436.915.492.492,0,0,1,.535.021,10.008,10.008,0,0,0,1.391.8A.5.5,0,0,1,8,21.488,2.515,2.515,0,0,0,10.512,24h2.976A2.517,2.517,0,0,0,16,21.479a.5.5,0,0,1,.284-.452,9.961,9.961,0,0,0,1.392-.8.5.5,0,0,1,.541-.018,2.516,2.516,0,0,0,3.431-.919l1.489-2.578A2.515,2.515,0,0,0,22.217,13.28ZM20,12c0,.205-.009.408-.025.608a2.54,2.54,0,0,0,1.242,2.4.512.512,0,0,1,.187.7l-1.487,2.578a.516.516,0,0,1-.706.183,2.517,2.517,0,0,0-2.67.107,8.029,8.029,0,0,1-1.113.641A2.515,2.515,0,0,0,14,21.488a.512.512,0,0,1-.512.512H10.512A.514.514,0,0,1,10,21.479,2.51,2.51,0,0,0,8.571,19.22a8.077,8.077,0,0,1-1.112-.641,2.516,2.516,0,0,0-2.676-.1.513.513,0,0,1-.7-.187L2.6,15.712a.513.513,0,0,1,.187-.7,2.54,2.54,0,0,0,1.242-2.4C4.009,12.408,4,12.205,4,12s.009-.408.025-.608a2.54,2.54,0,0,0-1.242-2.4.512.512,0,0,1-.187-.7L4.083,5.711a.513.513,0,0,1,.706-.183,2.515,2.515,0,0,0,2.67-.107A8.029,8.029,0,0,1,8.572,4.78,2.515,2.515,0,0,0,10,2.512.512.512,0,0,1,10.512,2h2.976A.514.514,0,0,1,14,2.521,2.51,2.51,0,0,0,15.429,4.78a8.077,8.077,0,0,1,1.112.641,2.518,2.518,0,0,0,2.676.1.513.513,0,0,1,.7.187L21.4,8.288a.513.513,0,0,1-.187.7,2.54,2.54,0,0,0-1.242,2.4C19.991,11.592,20,11.8,20,12Z"></path>
    <path d="M12,7a5,5,0,1,0,5,5A5.006,5.006,0,0,0,12,7Zm0,8a3,3,0,1,1,3-3A3,3,0,0,1,12,15Z"></path>
  </g>
</svg>
